<svg width="446" height="148" viewBox="0 0 446 148" fill="none" xmlns="http://www.w3.org/2000/svg">
<rect x="426.8" y="71.7612" width="12.6954" height="12.6954" transform="rotate(-8.77543 426.8 71.7612)" fill="#333532"/>
<path d="M79.3551 132.57C79.4012 131.552 80.7638 131.247 81.2389 132.15L82.4685 134.485C82.7523 135.023 83.4479 135.186 83.9408 134.828L86.0762 133.277C86.9014 132.678 87.9889 133.554 87.5797 134.488L86.5208 136.905C86.2764 137.463 86.5833 138.108 87.1704 138.27L89.714 138.973C90.6969 139.245 90.6904 140.641 89.705 140.903L87.155 141.582C86.5664 141.739 86.2535 142.381 86.4927 142.941L87.529 145.368C87.9295 146.306 86.834 147.172 86.0144 146.565L83.8935 144.995C83.4039 144.632 82.7068 144.788 82.418 145.324L81.1668 147.647C80.6832 148.545 79.3236 148.228 79.287 147.209L79.1922 144.572C79.1704 143.963 78.614 143.515 78.0147 143.624L75.418 144.094C74.4146 144.276 73.8147 143.015 74.5887 142.351L76.5914 140.633C77.0537 140.236 77.057 139.522 76.5985 139.121L74.6118 137.384C73.8441 136.713 74.4557 135.458 75.4574 135.649L78.0495 136.144C78.6478 136.258 79.2083 135.815 79.2358 135.207L79.3551 132.57Z" fill="#333532"/>
<path fill-rule="evenodd" clip-rule="evenodd" d="M445.129 205.947C424.917 116.706 345.125 50.0762 249.77 50.0762C182.614 50.0762 123.177 83.1249 86.8354 133.846C87.2039 133.903 87.5718 133.962 87.9391 134.024C124.125 83.7846 183.128 51.0762 249.77 51.0762C344.57 51.0762 423.91 117.263 444.103 205.947H445.129Z" fill="#333532"/>
<path fill-rule="evenodd" clip-rule="evenodd" d="M1.46011 213C20.7116 92.8205 124.871 1 250.475 1C321.055 1 384.864 29.9928 430.64 76.7184C431.055 76.6646 431.47 76.6125 431.886 76.5621C385.89 29.3326 321.608 0 250.475 0C124.317 0 19.7085 92.2658 0.447266 213H1.46011Z" fill="#333532"/>
</svg>
