<svg width="580" height="580" viewBox="0 0 580 580" fill="none" xmlns="http://www.w3.org/2000/svg">
<path d="M198.286 554.788L192.918 552.589C190.37 551.545 188.624 550.165 187.68 548.449C186.726 546.76 186.698 544.818 187.598 542.622C188.186 541.185 189.154 539.983 190.5 539.014C191.846 538.046 193.664 537.318 195.953 536.831L196.472 539.276C195.148 539.493 193.993 540.033 193.006 540.896C191.982 541.774 191.236 542.782 190.77 543.921C190.203 545.304 190.18 546.481 190.7 547.454C191.209 548.454 192.412 549.342 194.309 550.12L196.424 550.986L200.422 541.226L195.582 539.244L194.265 537.707C192.907 536.771 192.005 535.61 191.56 534.225C191.103 532.866 191.208 531.374 191.874 529.747C192.762 527.578 194.183 526.197 196.135 525.604C198.088 525.01 200.298 525.219 202.765 526.23L208.946 528.761L198.286 554.788ZM202.105 528.999C200.126 528.188 198.586 527.969 197.484 528.34C196.382 528.712 195.531 529.63 194.931 531.094C194.387 532.423 194.391 533.611 194.943 534.66C195.483 535.737 196.716 536.669 198.641 537.457L201.488 538.623L204.952 530.165L202.105 528.999Z" fill="#E9EDDF"/>
<path d="M143.817 529.041L155.378 511.873C156.311 510.487 156.775 509.299 156.772 508.308C156.768 507.317 156.11 506.379 154.798 505.495C153.535 504.644 152.431 504.396 151.486 504.749C150.526 505.126 149.587 505.995 148.671 507.356L137.11 524.524L134.485 522.757L145.948 505.735C147.47 503.475 149.126 502.17 150.915 501.821C152.704 501.472 154.522 501.919 156.369 503.163C158.216 504.406 159.322 505.911 159.688 507.675C160.037 509.465 159.451 511.489 157.929 513.749L146.441 530.808L143.817 529.041Z" fill="#E9EDDF"/>
<path d="M118.57 478.445L114.692 475.107L98.6052 490.838L101.732 494.665L100.036 496.324L90.941 487.024L92.6376 485.365L96.393 488.576L112.48 472.845L109.23 468.893L110.926 467.234L120.267 476.785L118.57 478.445Z" fill="#E9EDDF"/>
<path d="M62.4462 454.251L60.738 451.587L82.0443 437.921L76.0654 428.6L78.4328 427.081L86.1199 439.066L62.4462 454.251Z" fill="#E9EDDF"/>
<path d="M33.25 395.632L56.8824 386.564L58.0159 389.518L34.3836 398.586L36.6507 404.494L34.0248 405.502L28.3571 390.732L30.983 389.724L33.25 395.632Z" fill="#E9EDDF"/>
<path d="M37.1721 292.815C32.706 293.744 28.3416 294.34 24.079 294.603C19.8164 294.866 14.7713 294.906 8.94383 294.723L9.07489 291.562C15.5171 291.77 20.7341 291.825 24.726 291.727C28.7191 291.599 32.9 291.186 37.2686 290.488L37.1721 292.815ZM37.2067 291.98C33.5268 290.919 30.1446 290.104 27.06 289.537C23.9754 288.969 20.8377 288.619 17.6471 288.487L17.7127 286.906C22.4254 287.101 26.2247 287.405 29.1104 287.818C31.9962 288.231 34.7223 288.96 37.2886 290.005L37.2067 291.98ZM37.4834 285.306C33.1876 284.249 29.0546 283.506 25.0846 283.077C21.1158 282.619 15.9127 282.228 9.47535 281.902L9.6064 278.741C15.4291 279.041 20.4535 279.498 24.6797 280.113C28.9059 280.728 33.2059 281.684 37.5798 282.979L37.4834 285.306ZM37.4634 285.789C34.8193 286.618 32.0423 287.119 29.1323 287.291C26.2222 287.464 22.4108 287.453 17.6981 287.257L17.7636 285.676C20.9542 285.809 24.1101 285.72 27.2311 285.409C30.3521 285.099 33.7901 284.567 37.5453 283.814L37.4634 285.789Z" fill="#E9EDDF"/>
<path d="M38.9874 242.765L39.7993 237.713L17.9731 232.248L16.3513 236.916L14.0494 236.34L17.2089 223.721L19.5108 224.298L18.7416 229.179L40.5678 234.644L42.2323 229.806L44.5343 230.382L41.2894 243.342L38.9874 242.765Z" fill="#E9EDDF"/>
<path d="M36.5534 175.587L59.3541 186.58L57.98 189.43L35.1793 178.437L32.431 184.137L29.8976 182.916L36.7683 168.665L39.3017 169.887L36.5534 175.587Z" fill="#E9EDDF"/>
<path d="M57.2736 131.983L59.1964 129.47L70.3642 138.016L75.2782 131.595L64.1103 123.049L66.0332 120.536L88.3688 137.628L86.446 140.141L77.5117 133.304L72.5978 139.725L81.532 146.562L79.6092 149.075L57.2736 131.983Z" fill="#E9EDDF"/>
<path d="M151.54 77.8554C149.25 72.859 147.43 67.9524 146.079 63.1357C144.715 58.2933 143.946 53.8563 143.773 49.8246L146.228 48.4521C149.572 50.711 152.949 53.6898 156.359 57.3884C159.755 61.0614 162.982 65.1817 166.039 69.7492L163.162 71.3575C160.208 67.0345 157.271 63.2222 154.351 59.9207C151.417 56.5935 148.631 53.9219 145.994 51.9058L146.838 51.434C147.174 54.7368 147.991 58.5093 149.288 62.7514C150.572 66.9679 152.281 71.4665 154.417 76.247L151.54 77.8554ZM158.248 61.2163L159.62 63.6712L149.801 69.1611L148.428 66.7062L158.248 61.2163Z" fill="#E9EDDF"/>
<path d="M204.054 52.5086C203.076 52.8174 202.025 53.0416 200.902 53.1813C199.788 53.3489 198.712 53.3967 197.675 53.3246L197.625 50.3912C198.661 50.4633 199.63 50.4648 200.529 50.3957C201.42 50.2986 202.355 50.0957 203.333 49.787C205.121 49.2224 206.276 48.5041 206.8 47.6322C207.342 46.7235 207.437 45.7104 207.084 44.5929C206.802 43.6989 206.368 43.0064 205.783 42.5153C205.198 42.0242 204.536 41.6801 203.798 41.4831C203.088 41.2772 202.141 41.1 200.957 40.9515C199.413 40.7324 198.148 40.4714 197.162 40.1685C196.166 39.8377 195.207 39.2341 194.286 38.3577C193.355 37.4535 192.625 36.1632 192.095 34.487C191.363 32.1682 191.489 30.0854 192.473 28.2387C193.456 26.3919 195.275 25.0494 197.929 24.2113C198.767 23.9467 199.655 23.743 200.594 23.6004C201.551 23.421 202.418 23.3468 203.196 23.3777L203.373 26.2714C201.761 26.2272 200.229 26.4346 198.776 26.8933C196.821 27.5108 195.616 28.3673 195.163 29.4627C194.73 30.5214 194.755 31.819 195.241 33.3555C195.602 34.501 196.126 35.3803 196.811 35.9934C197.524 36.5977 198.286 37.0175 199.098 37.2528C199.91 37.488 200.976 37.7042 202.298 37.9012C203.713 38.0997 204.867 38.3497 205.761 38.6511C206.674 38.9158 207.523 39.4157 208.308 40.1509C209.122 40.8773 209.749 41.9389 210.19 43.3358C210.887 45.5428 210.695 47.416 209.614 48.9555C208.561 50.4862 206.708 51.6705 204.054 52.5086Z" fill="#E9EDDF"/>
<path d="M254.033 14.2817L256.609 39.4628L253.461 39.7848L250.885 14.6038L244.59 15.2479L244.303 12.45L260.042 10.8398L260.328 13.6377L254.033 14.2817Z" fill="#E9EDDF"/>
<path d="M308.807 9.79056C311.285 10.044 313.173 11.0176 314.472 12.7114C315.803 14.379 316.327 16.5972 316.044 19.3659C315.767 22.0764 314.828 24.0565 313.228 25.3064C311.656 26.5592 309.603 27.0559 307.067 26.7965L306.587 26.7473L306.192 27.1487L303.394 26.8624L302.316 37.3983L299.169 37.0762L302.031 9.09728L308.807 9.79056ZM307.003 24.4045C308.956 24.6043 310.347 24.246 311.177 23.3296C312.007 22.4132 312.522 20.9787 312.722 19.026C312.921 17.0733 312.693 15.5627 312.037 14.4943C311.413 13.3997 310.139 12.754 308.215 12.5571L304.893 12.2172L303.68 24.0645L307.003 24.4045ZM311.278 38.3152C311.279 35.4292 310.795 33.112 309.825 31.3636C308.887 29.589 307.39 28.1105 305.331 26.9281L305.452 25.7477C307.405 25.9475 309.06 26.6028 310.419 27.7137C311.778 28.8246 312.804 30.3137 313.496 32.1809C314.189 34.0482 314.528 36.2033 314.513 38.6462L311.278 38.3152Z" fill="#E9EDDF"/>
<path d="M356.812 46.8412C354.186 46.0119 352.578 44.2445 351.989 41.5391C351.436 38.8145 351.883 35.1613 353.329 30.5797C354.803 25.9142 356.544 22.6389 358.552 20.7539C360.589 18.8777 362.92 18.3542 365.546 19.1835C368.228 20.0304 369.836 21.7978 370.369 24.4856C370.94 27.1543 370.484 30.8354 369.002 35.5288C367.546 40.1384 365.814 43.3858 363.806 45.2708C361.825 47.1646 359.494 47.6881 356.812 46.8412ZM357.685 44.0754C358.831 44.4371 359.854 44.3606 360.753 43.846C361.653 43.3314 362.508 42.3264 363.318 40.831C364.129 39.3356 364.962 37.233 365.817 34.5231C366.682 31.7853 367.212 29.5716 367.407 27.8822C367.612 26.1648 367.493 24.8371 367.052 23.899C366.611 22.9609 365.818 22.311 364.673 21.9493C363.527 21.5876 362.504 21.664 361.605 22.1787C360.705 22.6933 359.845 23.7123 359.026 25.2356C358.216 26.7309 357.379 28.8475 356.514 31.5854C355.659 34.2953 355.133 36.4949 354.937 38.1844C354.742 39.8739 354.865 41.1876 355.306 42.1257C355.747 43.0638 356.54 43.7137 357.685 44.0754Z" fill="#E9EDDF"/>
<path d="M441.522 87.6455C445.441 83.7917 449.435 80.4102 453.504 77.501C457.593 74.5697 461.504 72.3365 465.236 70.8015L467.362 72.6427C466.376 76.5558 464.724 80.7452 462.407 85.2109C460.11 89.6544 457.334 94.0907 454.079 98.5199L451.588 96.3623C454.647 92.1133 457.232 88.0541 459.343 84.1848C461.473 80.2934 463.037 76.7645 464.035 73.5982L464.765 74.2311C461.774 75.6713 458.505 77.7234 454.958 80.3874C451.43 83.0293 447.782 86.1678 444.014 89.8031L441.522 87.6455ZM459.451 88.2894L457.61 90.4155L449.105 83.0508L450.946 80.9248L459.451 88.2894Z" fill="#E9EDDF"/>
<path d="M504.429 109.243L503.045 109.749L481.826 125.986L479.903 123.473L502.239 106.381L504.429 109.243ZM510.998 117.828L488.663 134.92L486.473 132.058L487.822 131.58L509.076 115.315L510.998 117.828ZM502.568 108.619L504.429 109.243L494.873 124.524L488.307 132.647L486.473 132.058L496.029 116.778L502.568 108.619Z" fill="#E9EDDF"/>
<path d="M537.19 157.994C538.17 160.026 538.523 161.872 538.25 163.532C537.978 165.192 537.038 166.751 535.431 168.208C533.864 169.68 531.55 171.153 528.489 172.629C525.427 174.105 522.846 174.992 520.746 175.289C518.658 175.613 516.892 175.358 515.45 174.525C514.046 173.706 512.855 172.28 511.875 170.248L509.566 165.458L534.9 153.243L537.19 157.994ZM514.275 168.749C515.077 170.412 515.998 171.48 517.039 171.954C518.12 172.441 519.391 172.479 520.851 172.067C522.338 171.643 524.387 170.801 527 169.542C529.665 168.257 531.634 167.145 532.905 166.207C534.189 165.295 534.977 164.264 535.269 163.116C535.573 161.993 535.331 160.614 534.542 158.978L533.741 157.315L513.473 167.087L514.275 168.749Z" fill="#E9EDDF"/>
<path d="M540.587 268.83C540.545 267.806 540.603 266.733 540.762 265.612C540.891 264.492 541.126 263.442 541.467 262.46L544.311 263.178C543.971 264.16 543.716 265.094 543.548 265.98C543.409 266.866 543.36 267.821 543.403 268.845C543.48 270.719 543.872 272.022 544.576 272.755C545.312 273.516 546.265 273.873 547.436 273.824C548.372 273.785 549.154 273.548 549.781 273.111C550.408 272.675 550.913 272.126 551.296 271.465C551.681 270.833 552.099 269.966 552.552 268.862C553.167 267.429 553.75 266.276 554.3 265.403C554.879 264.528 555.712 263.761 556.799 263.1C557.915 262.438 559.352 262.07 561.108 261.998C563.537 261.897 565.515 262.563 567.04 263.995C568.566 265.427 569.386 267.534 569.502 270.314C569.538 271.192 569.502 272.103 569.395 273.046C569.318 274.017 569.163 274.873 568.93 275.616L566.091 275.03C566.554 273.486 566.755 271.953 566.692 270.431C566.607 268.382 566.095 266.996 565.156 266.272C564.247 265.577 562.988 265.262 561.378 265.329C560.178 265.379 559.192 265.654 558.421 266.155C557.652 266.686 557.047 267.312 556.608 268.034C556.169 268.756 555.681 269.729 555.146 270.953C554.584 272.267 554.041 273.316 553.517 274.1C553.023 274.912 552.318 275.601 551.403 276.167C550.49 276.762 549.301 277.089 547.837 277.15C545.525 277.246 543.767 276.571 542.564 275.126C541.361 273.709 540.702 271.611 540.587 268.83Z" fill="#E9EDDF"/>
<path d="M539.797 319.998C543.647 318.788 548.066 317.999 553.055 317.629C558.073 317.264 563.32 317.308 568.798 317.76L568.265 321.013C563.043 320.632 558.216 320.553 553.786 320.777C549.384 321.005 545.574 321.524 542.354 322.332L542.51 321.378C545.303 323.172 548.749 324.879 552.848 326.501C556.975 328.128 561.573 329.594 566.644 330.9L566.111 334.153C560.775 332.833 555.788 331.199 551.15 329.251C546.54 327.308 542.604 325.149 539.342 322.773L539.797 319.998Z" fill="#E9EDDF"/>
<path d="M556.881 374.748L551.937 387.63L549.311 386.623L553.121 376.694L542.618 372.664L539.658 380.377L537.033 379.369L539.992 371.656L532.115 368.633L528.148 378.972L525.522 377.965L530.623 364.672L556.881 374.748Z" fill="#E9EDDF"/>
<path d="M534.064 427.115L532.356 429.779L511.049 416.113L505.071 425.434L502.703 423.916L510.39 411.931L534.064 427.115Z" fill="#E9EDDF"/>
<path d="M492.961 478.095L474.864 460.398L477.076 458.135L495.173 475.833L499.598 471.309L501.608 473.275L490.547 484.586L488.537 482.62L492.961 478.095Z" fill="#E9EDDF"/>
<path d="M459.404 512.801L447.958 520.509L446.387 518.176L455.208 512.236L448.924 502.904L442.071 507.519L440.501 505.186L447.353 500.571L442.64 493.573L433.455 499.758L431.884 497.426L443.694 489.473L459.404 512.801Z" fill="#E9EDDF"/>
<path d="M405.853 544.534L402.111 546.067L395.219 527.615L397.821 526.549L405.853 544.534ZM393.155 518.867C393.915 518.556 394.633 518.531 395.309 518.792C395.986 519.053 396.491 519.591 396.824 520.404C397.157 521.217 397.174 521.954 396.875 522.615C396.549 523.287 396.019 523.773 395.287 524.072C394.555 524.372 393.851 524.392 393.174 524.131C392.47 523.881 391.952 523.349 391.619 522.536C391.286 521.723 391.269 520.985 391.568 520.325C391.867 519.664 392.396 519.178 393.155 518.867Z" fill="#E9EDDF"/>
</svg>
